<svg xmlns="http://www.w3.org/2000/svg" width="1024" height="1024" viewBox="0 0 1024 1024"><rect width="1024" height="1024" fill="#2563A6"/><g transform="translate(512 512) scale(1.45515) translate(-512.75 -513.75)"><path fill="#FFFFFF" d="M730.57 499.25L730.546 428.864C730.522 418 730.896 400.126 729.981 389.507L626.519 493.381C604.24 515.446 584.926 541.063 554.415 551.56C540.205 556.449 529.74 558.22 514.966 558.525C482.053 559.203 449.705 546.635 427.175 522.433C421.162 516.148 415.02 509.799 408.889 503.643L333.981 428.506C321.034 415.489 308.203 402.009 294.992 389.286L294.709 550.237L294.615 598.014C294.594 619.013 292.347 637.246 308.344 653.35C321.737 666.833 333.963 667.432 352.062 667.481L584.604 667.403L653.641 667.307C676.037 667.329 699.162 671.232 716.476 654.088C732.649 638.075 730.587 619.996 730.523 599.123C730.505 593.381 730.502 587.543 730.497 581.792L730.57 499.25Z"/><path fill="#FFC305" d="M311.279 360.052C325.609 359.502 343.393 359.964 357.945 359.964L446.847 359.963L713.581 360.026C706.289 366.517 694.652 379.134 687.223 386.596C668.642 405.468 649.941 424.222 631.121 442.857C618.88 455.445 606.572 467.968 594.199 480.426C570.143 504.614 553.493 524.011 516.313 525.517C498.322 526.227 480.544 521.413 465.369 511.724C450.166 502.227 436.447 485.988 423.482 473.161L346.035 395.275C335.17 384.291 322.322 370.243 311.279 360.052Z"/></g></svg>
